<svg id="svg" version="1.1" xmlns="http://www.w3.org/2000/svg" xmlns:xlink="http://www.w3.org/1999/xlink" width="400" height="173.68762151652626" viewBox="0, 0, 400,173.68762151652626"><g id="svgg"><path id="path0" d="M132.480 37.245 C 132.426 37.386,132.192 37.549,131.960 37.607 C 131.728 37.665,131.538 37.783,131.538 37.870 C 131.538 37.956,131.310 38.076,131.031 38.138 C 130.752 38.199,130.481 38.361,130.428 38.499 C 130.376 38.636,130.213 38.749,130.066 38.749 C 129.920 38.749,129.800 38.826,129.800 38.919 C 129.800 39.013,129.610 39.137,129.378 39.196 C 129.146 39.254,128.914 39.412,128.863 39.547 C 128.811 39.681,128.649 39.791,128.502 39.791 C 128.356 39.791,128.236 39.861,128.236 39.946 C 128.236 40.032,128.041 40.150,127.802 40.210 C 127.563 40.270,127.368 40.396,127.368 40.490 C 127.368 40.584,127.248 40.660,127.101 40.660 C 126.955 40.660,126.793 40.771,126.741 40.905 C 126.690 41.040,126.457 41.198,126.225 41.256 C 125.993 41.314,125.804 41.439,125.804 41.532 C 125.804 41.626,125.684 41.703,125.538 41.703 C 125.391 41.703,125.229 41.813,125.177 41.948 C 125.126 42.083,124.875 42.245,124.620 42.309 C 124.365 42.373,124.117 42.478,124.068 42.542 C 123.895 42.770,122.861 43.440,122.683 43.440 C 122.584 43.440,122.502 43.506,122.502 43.586 C 122.502 43.667,122.311 43.819,122.077 43.926 C 121.398 44.235,117.637 46.769,117.637 46.917 C 117.637 46.991,117.441 47.101,117.202 47.161 C 116.964 47.221,116.768 47.347,116.768 47.440 C 116.768 47.534,116.648 47.611,116.502 47.611 C 116.356 47.611,116.194 47.721,116.142 47.856 C 116.090 47.990,115.858 48.148,115.626 48.207 C 115.394 48.265,115.204 48.389,115.204 48.483 C 115.204 48.577,115.084 48.653,114.938 48.653 C 114.792 48.653,114.630 48.764,114.578 48.898 C 114.526 49.033,114.294 49.191,114.062 49.249 C 113.830 49.307,113.640 49.432,113.640 49.525 C 113.640 49.619,113.521 49.696,113.374 49.696 C 113.228 49.696,113.066 49.806,113.014 49.941 C 112.962 50.076,112.730 50.233,112.498 50.292 C 112.266 50.350,112.076 50.474,112.076 50.568 C 112.076 50.662,111.957 50.738,111.810 50.738 C 111.664 50.738,111.502 50.849,111.450 50.983 C 111.399 51.118,111.166 51.276,110.934 51.334 C 110.702 51.393,110.513 51.517,110.513 51.611 C 110.513 51.704,110.393 51.781,110.247 51.781 C 110.100 51.781,109.938 51.891,109.886 52.026 C 109.835 52.161,109.603 52.319,109.371 52.377 C 109.139 52.435,108.949 52.559,108.949 52.653 C 108.949 52.747,108.849 52.824,108.727 52.824 C 108.605 52.824,108.371 52.980,108.207 53.171 C 108.043 53.362,107.800 53.519,107.666 53.519 C 107.532 53.519,107.377 53.636,107.322 53.779 C 107.267 53.923,107.138 54.040,107.035 54.040 C 106.933 54.040,106.754 54.120,106.639 54.217 C 106.147 54.632,105.654 55.013,105.295 55.256 C 105.083 55.400,104.821 55.600,104.714 55.700 C 104.606 55.801,104.381 55.936,104.214 55.999 C 104.046 56.062,103.910 56.195,103.910 56.293 C 103.910 56.392,103.792 56.473,103.647 56.473 C 103.503 56.473,103.251 56.629,103.087 56.820 C 102.924 57.011,102.690 57.168,102.568 57.168 C 102.446 57.168,102.346 57.244,102.346 57.338 C 102.346 57.432,102.156 57.556,101.924 57.614 C 101.692 57.673,101.460 57.831,101.408 57.965 C 101.356 58.100,101.223 58.210,101.111 58.210 C 101.000 58.210,100.736 58.397,100.525 58.624 C 100.314 58.852,99.973 59.092,99.766 59.157 C 99.560 59.223,99.392 59.349,99.392 59.438 C 99.392 59.527,99.272 59.600,99.126 59.600 C 98.979 59.600,98.815 59.718,98.760 59.861 C 98.705 60.004,98.550 60.122,98.416 60.122 C 98.282 60.122,98.038 60.278,97.875 60.469 C 97.711 60.660,97.477 60.817,97.355 60.817 C 97.233 60.817,97.133 60.890,97.133 60.979 C 97.133 61.068,96.957 61.196,96.742 61.263 C 96.527 61.330,96.312 61.443,96.264 61.514 C 96.105 61.751,94.526 62.902,94.360 62.902 C 94.270 62.902,94.134 63.000,94.057 63.121 C 93.981 63.241,93.626 63.534,93.268 63.772 C 92.910 64.010,92.617 64.264,92.616 64.335 C 92.616 64.407,92.495 64.466,92.349 64.466 C 92.203 64.466,92.038 64.583,91.983 64.726 C 91.928 64.870,91.814 64.987,91.729 64.987 C 91.534 64.987,89.941 66.191,89.864 66.397 C 89.832 66.482,89.707 66.551,89.587 66.551 C 89.466 66.551,89.226 66.707,89.053 66.898 C 88.880 67.089,88.669 67.246,88.583 67.246 C 88.498 67.246,88.247 67.441,88.026 67.680 C 87.804 67.919,87.552 68.115,87.464 68.115 C 87.377 68.115,87.172 68.271,87.008 68.462 C 86.845 68.653,86.601 68.810,86.467 68.810 C 86.333 68.810,86.178 68.927,86.123 69.070 C 86.068 69.214,85.932 69.331,85.820 69.331 C 85.709 69.331,85.436 69.526,85.215 69.765 C 84.994 70.004,84.737 70.200,84.644 70.200 C 84.551 70.200,84.254 70.419,83.984 70.688 C 83.714 70.956,83.356 71.227,83.189 71.290 C 83.021 71.354,82.884 71.481,82.884 71.573 C 82.884 71.665,82.716 71.794,82.510 71.859 C 82.304 71.925,81.971 72.151,81.771 72.362 C 81.571 72.573,81.271 72.796,81.103 72.857 C 80.936 72.919,80.799 73.044,80.799 73.137 C 80.799 73.229,80.631 73.358,80.425 73.423 C 80.219 73.488,79.877 73.728,79.666 73.956 C 79.455 74.184,79.198 74.370,79.094 74.370 C 78.990 74.370,78.843 74.468,78.766 74.587 C 78.690 74.707,78.354 74.994,78.019 75.226 C 77.685 75.458,77.348 75.751,77.272 75.878 C 77.196 76.004,77.048 76.108,76.944 76.108 C 76.841 76.108,76.583 76.294,76.372 76.522 C 76.161 76.750,75.827 76.987,75.630 77.050 C 75.432 77.112,75.227 77.278,75.174 77.418 C 75.120 77.557,74.963 77.672,74.824 77.672 C 74.686 77.672,74.547 77.731,74.515 77.803 C 74.483 77.875,73.910 78.358,73.241 78.876 C 72.572 79.394,71.945 79.902,71.849 80.004 C 71.752 80.107,71.400 80.381,71.067 80.613 C 70.733 80.845,70.398 81.138,70.322 81.264 C 70.245 81.391,70.098 81.494,69.994 81.494 C 69.890 81.494,69.624 81.690,69.403 81.929 C 69.181 82.168,68.924 82.363,68.831 82.363 C 68.739 82.363,68.428 82.598,68.141 82.884 C 67.855 83.171,67.552 83.406,67.468 83.406 C 67.385 83.406,67.125 83.637,66.890 83.920 C 66.656 84.202,66.372 84.437,66.260 84.441 C 66.148 84.445,65.822 84.683,65.535 84.970 C 65.248 85.256,64.945 85.491,64.862 85.491 C 64.778 85.491,64.518 85.722,64.284 86.005 C 64.049 86.287,63.766 86.522,63.654 86.526 C 63.542 86.530,63.215 86.768,62.929 87.055 C 62.642 87.341,62.339 87.576,62.255 87.576 C 62.172 87.576,61.912 87.807,61.677 88.090 C 61.443 88.373,61.157 88.607,61.042 88.611 C 60.927 88.615,60.568 88.892,60.243 89.227 C 59.918 89.561,59.595 89.835,59.526 89.835 C 59.457 89.835,59.176 90.050,58.902 90.313 C 58.445 90.752,57.623 91.442,56.783 92.094 C 56.598 92.237,56.224 92.570,55.952 92.832 C 55.679 93.095,55.400 93.310,55.331 93.310 C 55.261 93.310,54.939 93.584,54.614 93.918 C 54.289 94.253,53.929 94.530,53.814 94.534 C 53.700 94.538,53.414 94.772,53.179 95.055 C 52.945 95.338,52.687 95.569,52.607 95.569 C 52.527 95.569,52.289 95.733,52.078 95.934 C 51.867 96.135,51.421 96.503,51.086 96.751 C 50.752 97.000,50.267 97.422,50.010 97.689 C 49.752 97.957,49.475 98.175,49.392 98.175 C 49.310 98.175,48.844 98.566,48.356 99.044 C 47.868 99.522,47.413 99.913,47.346 99.913 C 47.278 99.913,46.927 100.217,46.567 100.589 C 46.206 100.961,45.792 101.332,45.647 101.414 C 45.376 101.568,43.845 102.915,42.467 104.214 C 42.035 104.620,41.628 104.953,41.562 104.953 C 41.496 104.953,41.106 105.305,40.696 105.735 C 40.286 106.165,39.864 106.516,39.760 106.516 C 39.545 106.516,39.722 109.487,39.946 109.641 C 40.018 109.690,40.178 110.317,40.302 111.034 C 40.426 111.751,40.586 112.415,40.659 112.511 C 40.731 112.606,40.844 113.054,40.909 113.506 C 40.974 113.958,41.091 114.366,41.169 114.414 C 41.246 114.462,41.362 114.894,41.425 115.374 C 41.489 115.854,41.608 116.247,41.689 116.247 C 41.771 116.247,41.890 116.599,41.954 117.029 C 42.019 117.459,42.145 117.811,42.235 117.811 C 42.325 117.811,42.401 117.987,42.404 118.202 C 42.407 118.417,42.561 118.905,42.745 119.288 C 42.930 119.670,43.084 120.071,43.087 120.180 C 43.090 120.289,43.210 120.601,43.353 120.875 C 43.495 121.149,43.613 121.510,43.613 121.677 C 43.614 121.844,43.686 121.981,43.774 121.981 C 43.862 121.981,43.986 122.215,44.049 122.502 C 44.112 122.789,44.229 123.023,44.309 123.023 C 44.390 123.023,44.507 123.258,44.570 123.545 C 44.633 123.831,44.756 124.066,44.844 124.066 C 44.932 124.066,45.004 124.251,45.004 124.477 C 45.004 124.703,45.161 125.087,45.352 125.330 C 45.543 125.573,45.699 125.857,45.699 125.961 C 45.699 126.066,45.771 126.151,45.859 126.151 C 45.947 126.151,46.071 126.386,46.134 126.672 C 46.197 126.959,46.314 127.194,46.394 127.194 C 46.475 127.194,46.592 127.428,46.655 127.715 C 46.718 128.002,46.824 128.236,46.890 128.236 C 46.956 128.236,47.202 128.588,47.437 129.018 C 47.672 129.448,47.924 129.800,47.998 129.800 C 48.072 129.800,48.132 129.920,48.132 130.066 C 48.132 130.213,48.242 130.375,48.377 130.426 C 48.512 130.478,48.670 130.710,48.728 130.942 C 48.786 131.174,48.910 131.364,49.004 131.364 C 49.098 131.364,49.175 131.484,49.175 131.630 C 49.175 131.776,49.289 131.940,49.429 131.994 C 49.568 132.047,49.734 132.253,49.797 132.450 C 49.859 132.647,50.097 132.981,50.324 133.192 C 50.552 133.403,50.738 133.647,50.738 133.734 C 50.738 133.822,50.963 134.090,51.237 134.330 C 51.511 134.571,51.790 134.940,51.857 135.151 C 51.978 135.535,52.997 135.738,52.997 135.379 C 52.997 135.293,53.330 134.871,53.736 134.441 C 55.031 133.069,55.604 132.418,55.604 132.321 C 55.604 132.127,70.416 117.116,70.607 117.116 C 70.660 117.116,71.482 116.334,72.433 115.378 C 73.384 114.422,74.221 113.640,74.292 113.640 C 74.364 113.640,74.672 113.386,74.978 113.076 C 75.747 112.295,76.775 111.381,76.884 111.381 C 76.934 111.381,77.374 110.990,77.862 110.513 C 78.350 110.035,78.800 109.643,78.862 109.643 C 78.924 109.642,79.421 109.212,79.966 108.687 C 80.512 108.162,81.022 107.732,81.101 107.732 C 81.179 107.732,81.437 107.512,81.673 107.244 C 81.909 106.975,82.232 106.682,82.391 106.592 C 82.550 106.502,82.996 106.136,83.383 105.778 C 83.769 105.419,84.139 105.126,84.205 105.126 C 84.270 105.126,84.567 104.890,84.864 104.602 C 85.807 103.686,86.788 102.876,86.968 102.864 C 87.063 102.857,87.333 102.621,87.568 102.338 C 87.802 102.056,88.067 101.825,88.156 101.825 C 88.245 101.825,88.499 101.629,88.721 101.390 C 88.942 101.151,89.199 100.956,89.292 100.956 C 89.385 100.956,89.682 100.736,89.952 100.468 C 90.222 100.199,90.580 99.928,90.747 99.865 C 90.914 99.802,91.051 99.675,91.051 99.583 C 91.051 99.491,91.224 99.360,91.435 99.294 C 91.646 99.227,92.015 98.948,92.255 98.674 C 92.496 98.400,92.792 98.175,92.914 98.175 C 93.037 98.175,93.136 98.103,93.136 98.013 C 93.136 97.924,93.305 97.798,93.511 97.732 C 93.717 97.667,94.049 97.441,94.250 97.230 C 94.450 97.019,94.750 96.796,94.917 96.734 C 95.085 96.673,95.222 96.550,95.222 96.462 C 95.222 96.374,95.352 96.251,95.510 96.190 C 95.829 96.068,95.737 108.037,95.417 108.245 C 95.336 108.298,95.214 109.474,95.145 110.859 C 95.076 112.244,94.957 113.417,94.882 113.465 C 94.806 113.514,94.688 114.394,94.619 115.421 C 94.550 116.449,94.431 117.289,94.354 117.289 C 94.278 117.289,94.160 117.993,94.092 118.853 C 94.024 119.713,93.908 120.417,93.834 120.417 C 93.759 120.417,93.643 121.082,93.576 121.894 C 93.508 122.706,93.388 123.371,93.309 123.371 C 93.231 123.371,93.111 123.957,93.044 124.674 C 92.977 125.391,92.862 125.977,92.789 125.977 C 92.715 125.977,92.601 126.485,92.535 127.105 C 92.468 127.725,92.351 128.271,92.274 128.319 C 92.198 128.366,92.080 128.915,92.014 129.537 C 91.947 130.160,91.828 130.669,91.750 130.669 C 91.671 130.669,91.552 131.138,91.486 131.712 C 91.419 132.285,91.300 132.754,91.220 132.754 C 91.141 132.754,91.022 133.185,90.957 133.712 C 90.891 134.239,90.768 134.713,90.683 134.765 C 90.599 134.817,90.530 135.061,90.530 135.307 C 90.530 135.768,91.632 135.827,91.908 135.380 C 91.964 135.289,92.225 135.161,92.487 135.095 C 92.748 135.029,92.963 134.912,92.963 134.834 C 92.963 134.757,93.197 134.642,93.484 134.579 C 93.771 134.516,94.005 134.398,94.005 134.318 C 94.005 134.238,94.233 134.122,94.512 134.061 C 94.791 133.999,95.062 133.837,95.115 133.699 C 95.167 133.562,95.330 133.449,95.477 133.449 C 95.623 133.449,95.743 133.377,95.743 133.289 C 95.743 133.201,95.977 133.078,96.264 133.015 C 96.551 132.952,96.785 132.835,96.785 132.754 C 96.785 132.674,97.020 132.556,97.307 132.493 C 97.593 132.431,97.828 132.315,97.828 132.238 C 97.828 132.160,98.023 132.048,98.262 131.988 C 98.501 131.928,98.697 131.808,98.697 131.722 C 98.697 131.636,98.931 131.514,99.218 131.451 C 99.505 131.388,99.739 131.273,99.739 131.195 C 99.739 131.118,99.954 131.000,100.215 130.935 C 100.477 130.869,100.731 130.763,100.780 130.699 C 100.920 130.514,101.479 130.190,102.650 129.614 C 103.247 129.320,103.736 129.016,103.736 128.938 C 103.736 128.859,103.950 128.742,104.212 128.676 C 104.474 128.610,104.728 128.504,104.777 128.440 C 104.825 128.376,105.256 128.128,105.734 127.889 C 106.212 127.650,106.642 127.414,106.690 127.364 C 106.738 127.314,106.972 127.178,107.211 127.061 C 107.745 126.800,108.311 126.448,108.427 126.305 C 108.475 126.246,108.706 126.138,108.941 126.065 C 109.175 125.992,109.474 125.825,109.605 125.694 C 109.735 125.563,109.954 125.456,110.091 125.456 C 110.227 125.456,110.339 125.378,110.339 125.282 C 110.339 125.187,110.459 125.109,110.605 125.109 C 110.751 125.109,110.914 124.996,110.967 124.859 C 111.020 124.721,111.291 124.558,111.570 124.497 C 111.848 124.436,112.076 124.315,112.076 124.229 C 112.076 124.143,112.272 124.024,112.511 123.964 C 112.750 123.904,112.945 123.785,112.945 123.700 C 112.945 123.614,113.065 123.545,113.211 123.545 C 113.358 123.545,113.522 123.427,113.577 123.284 C 113.632 123.141,113.781 123.023,113.907 123.023 C 114.033 123.023,114.240 122.925,114.366 122.804 C 114.493 122.684,114.791 122.489,115.030 122.371 C 115.547 122.116,116.072 121.786,116.339 121.546 C 116.446 121.451,116.820 121.218,117.172 121.029 C 117.523 120.840,117.811 120.625,117.811 120.551 C 117.811 120.477,117.916 120.417,118.045 120.417 C 118.251 120.417,118.486 120.258,119.324 119.551 C 119.439 119.454,119.617 119.374,119.720 119.374 C 119.823 119.374,119.949 119.264,120.001 119.129 C 120.052 118.995,120.284 118.837,120.516 118.779 C 120.748 118.720,120.938 118.596,120.938 118.502 C 120.938 118.409,121.058 118.332,121.204 118.332 C 121.351 118.332,121.513 118.222,121.565 118.087 C 121.616 117.952,121.848 117.794,122.080 117.736 C 122.312 117.678,122.502 117.554,122.502 117.460 C 122.502 117.366,122.622 117.289,122.768 117.289 C 122.915 117.289,123.077 117.179,123.128 117.044 C 123.180 116.910,123.412 116.752,123.644 116.694 C 123.876 116.635,124.066 116.511,124.066 116.417 C 124.066 116.323,124.186 116.247,124.332 116.247 C 124.478 116.247,124.641 116.137,124.692 116.002 C 124.744 115.867,124.976 115.709,125.208 115.651 C 125.440 115.593,125.630 115.468,125.630 115.375 C 125.630 115.281,125.730 115.204,125.852 115.204 C 125.974 115.204,126.208 115.048,126.371 114.857 C 126.535 114.666,126.779 114.509,126.913 114.509 C 127.047 114.509,127.202 114.392,127.257 114.248 C 127.312 114.105,127.476 113.988,127.623 113.988 C 127.769 113.988,127.889 113.911,127.889 113.817 C 127.889 113.724,128.079 113.599,128.311 113.541 C 128.543 113.483,128.775 113.325,128.826 113.190 C 128.878 113.055,129.040 112.945,129.187 112.945 C 129.333 112.945,129.453 112.883,129.453 112.807 C 129.453 112.732,129.999 112.321,130.667 111.895 C 131.335 111.469,131.883 111.062,131.884 110.990 C 131.885 110.919,131.999 110.860,132.137 110.860 C 132.276 110.860,132.452 110.761,132.528 110.640 C 132.605 110.520,133.117 110.116,133.666 109.743 C 134.216 109.370,134.666 109.000,134.666 108.920 C 134.666 108.840,134.747 108.775,134.846 108.775 C 135.076 108.775,136.097 108.064,136.281 107.776 C 136.358 107.656,136.501 107.559,136.599 107.559 C 136.697 107.559,137.000 107.336,137.273 107.063 L 137.769 106.567 137.893 103.414 C 137.962 101.680,138.075 100.261,138.146 100.261 C 138.216 100.261,138.331 98.149,138.401 95.569 C 138.472 92.989,138.598 90.877,138.683 90.877 C 138.769 90.877,138.836 86.170,138.836 80.017 C 138.836 74.044,138.769 69.157,138.688 69.157 C 138.606 69.157,138.483 67.536,138.415 65.554 C 138.346 63.573,138.227 61.911,138.150 61.862 C 138.073 61.813,137.954 60.697,137.884 59.383 C 137.815 58.069,137.697 56.994,137.622 56.994 C 137.548 56.994,137.431 56.173,137.363 55.169 C 137.294 54.166,137.179 53.345,137.107 53.345 C 137.035 53.345,136.923 52.664,136.859 51.832 C 136.795 51.001,136.677 50.277,136.596 50.225 C 136.515 50.173,136.391 49.505,136.321 48.740 C 136.250 47.976,136.140 47.311,136.075 47.263 C 136.011 47.215,135.829 46.473,135.672 45.613 C 135.165 42.842,134.974 41.967,134.838 41.790 C 134.765 41.694,134.648 41.264,134.579 40.834 C 134.509 40.404,134.393 39.974,134.320 39.878 C 134.248 39.783,134.134 39.333,134.069 38.879 C 134.003 38.425,133.881 38.054,133.798 38.054 C 133.714 38.054,133.621 37.839,133.591 37.576 C 133.528 37.027,132.663 36.769,132.480 37.245 M90.617 110.812 C 90.426 110.859,90.183 110.967,90.078 111.052 C 89.973 111.138,89.523 111.257,89.079 111.318 C 88.635 111.379,88.271 111.489,88.271 111.562 C 88.271 111.635,87.802 111.749,87.228 111.816 C 86.655 111.882,86.186 112.005,86.186 112.088 C 86.186 112.170,85.795 112.290,85.317 112.353 C 84.839 112.417,84.448 112.528,84.448 112.600 C 84.448 112.672,84.009 112.786,83.472 112.853 C 82.934 112.921,82.182 113.086,81.799 113.221 C 81.416 113.356,80.871 113.467,80.587 113.467 C 80.302 113.467,79.824 113.577,79.522 113.713 C 79.221 113.848,78.526 114.010,77.978 114.073 C 77.430 114.135,76.943 114.249,76.895 114.327 C 76.847 114.405,76.284 114.524,75.643 114.593 C 74.039 114.765,73.725 115.005,73.579 116.175 C 73.514 116.695,73.399 117.158,73.324 117.205 C 73.248 117.252,73.132 117.688,73.065 118.174 C 72.998 118.660,72.835 119.266,72.702 119.521 C 72.569 119.775,72.460 120.142,72.460 120.336 C 72.459 120.531,72.302 121.135,72.111 121.678 C 71.920 122.222,71.764 122.826,71.764 123.019 C 71.764 123.213,71.690 123.371,71.601 123.371 C 71.511 123.371,71.385 123.723,71.320 124.153 C 71.256 124.583,71.142 124.935,71.068 124.935 C 70.994 124.935,70.882 125.209,70.819 125.543 C 70.757 125.877,70.640 126.151,70.559 126.151 C 70.479 126.151,70.360 126.503,70.296 126.933 C 70.231 127.363,70.106 127.715,70.017 127.715 C 69.929 127.715,69.806 128.028,69.745 128.410 C 69.684 128.792,69.569 129.105,69.490 129.105 C 69.411 129.105,69.295 129.379,69.233 129.713 C 69.170 130.048,69.049 130.321,68.964 130.321 C 68.879 130.321,68.810 130.488,68.810 130.692 C 68.810 131.069,73.764 131.060,74.023 130.683 C 74.070 130.614,74.891 130.466,75.847 130.355 C 77.410 130.173,79.599 129.789,81.873 129.296 C 82.764 129.103,84.336 128.638,84.883 128.405 C 85.074 128.323,85.504 128.204,85.838 128.139 C 86.173 128.075,86.525 127.964,86.620 127.893 C 86.716 127.821,87.019 127.709,87.293 127.644 C 87.910 127.496,88.220 127.197,88.368 126.607 C 88.431 126.356,88.547 126.151,88.627 126.151 C 88.706 126.151,88.824 125.799,88.888 125.369 C 88.953 124.939,89.071 124.587,89.152 124.587 C 89.232 124.587,89.349 124.314,89.412 123.979 C 89.475 123.645,89.587 123.371,89.661 123.371 C 89.735 123.371,89.848 123.019,89.913 122.589 C 89.977 122.159,90.094 121.807,90.173 121.807 C 90.252 121.807,90.370 121.377,90.436 120.851 C 90.501 120.326,90.620 119.896,90.699 119.896 C 90.778 119.896,90.898 119.427,90.964 118.853 C 91.031 118.280,91.148 117.811,91.224 117.811 C 91.301 117.811,91.420 117.244,91.489 116.551 C 91.558 115.858,91.681 115.249,91.762 115.197 C 91.844 115.145,91.964 114.109,92.029 112.894 L 92.147 110.686 91.556 110.707 C 91.230 110.718,90.808 110.765,90.617 110.812 " stroke="none" fill="#fc0404" fill-rule="evenodd"></path><path id="path1" d="M342.876 67.188 C 342.565 67.232,342.311 67.331,342.311 67.409 C 342.311 67.486,342.074 67.597,341.785 67.655 C 341.495 67.713,340.987 68.024,340.655 68.346 L 340.052 68.932 340.052 86.494 L 340.052 104.057 340.587 104.591 C 340.881 104.885,341.233 105.126,341.369 105.126 C 341.505 105.126,341.616 105.201,341.616 105.294 C 341.616 105.386,342.009 105.514,342.489 105.577 C 342.969 105.641,343.403 105.761,343.455 105.844 C 343.578 106.043,348.219 106.040,348.219 105.841 C 348.219 105.756,348.649 105.634,349.175 105.568 C 349.700 105.502,350.130 105.384,350.130 105.306 C 350.130 105.228,350.328 105.114,350.569 105.054 C 351.697 104.770,351.775 104.505,351.840 100.739 C 351.889 97.930,351.944 97.307,352.144 97.307 C 352.279 97.307,352.389 97.376,352.389 97.461 C 352.389 97.545,352.741 97.668,353.171 97.732 C 353.601 97.797,353.953 97.913,353.953 97.990 C 353.953 98.068,354.266 98.181,354.648 98.242 C 355.030 98.303,355.343 98.426,355.343 98.514 C 355.343 98.603,355.695 98.728,356.125 98.793 C 356.555 98.857,356.907 98.975,356.907 99.053 C 356.907 99.132,357.259 99.250,357.689 99.314 C 358.119 99.379,358.471 99.497,358.471 99.577 C 358.471 99.658,358.745 99.775,359.079 99.838 C 359.414 99.900,359.687 100.012,359.687 100.086 C 359.687 100.161,360.039 100.274,360.469 100.338 C 360.899 100.403,361.251 100.529,361.251 100.619 C 361.251 100.709,361.388 100.782,361.555 100.783 C 361.722 100.784,362.078 100.898,362.344 101.037 C 362.611 101.176,363.100 101.341,363.430 101.403 C 363.761 101.465,364.031 101.576,364.031 101.650 C 364.031 101.724,364.383 101.838,364.813 101.902 C 365.243 101.967,365.595 102.092,365.595 102.181 C 365.595 102.269,365.908 102.392,366.290 102.453 C 366.672 102.514,366.985 102.627,366.985 102.705 C 366.985 102.782,367.337 102.899,367.767 102.963 C 368.197 103.028,368.549 103.141,368.549 103.215 C 368.549 103.289,368.823 103.401,369.157 103.464 C 369.492 103.527,369.765 103.644,369.765 103.724 C 369.765 103.804,370.117 103.923,370.547 103.987 C 370.977 104.052,371.329 104.178,371.329 104.268 C 371.329 104.358,371.505 104.434,371.720 104.437 C 371.935 104.440,372.424 104.594,372.806 104.778 C 373.189 104.963,373.677 105.117,373.892 105.120 C 374.107 105.123,374.283 105.201,374.283 105.294 C 374.283 105.386,374.674 105.513,375.152 105.577 C 375.630 105.640,376.021 105.760,376.021 105.843 C 376.021 105.927,377.116 105.995,378.454 105.995 C 379.791 105.995,380.886 105.926,380.886 105.841 C 380.886 105.756,381.316 105.634,381.842 105.568 C 382.368 105.502,382.798 105.376,382.798 105.287 C 382.798 105.199,382.917 105.126,383.064 105.126 C 383.210 105.126,383.375 105.009,383.430 104.865 C 383.485 104.722,383.639 104.605,383.772 104.605 C 383.905 104.605,384.014 104.487,384.014 104.344 C 384.014 104.201,384.092 104.083,384.188 104.083 C 384.283 104.083,384.361 103.767,384.361 103.380 C 384.361 102.657,383.744 101.825,383.207 101.825 C 383.077 101.825,382.971 101.750,382.971 101.659 C 382.971 101.567,382.698 101.441,382.363 101.379 C 382.029 101.316,381.755 101.204,381.755 101.130 C 381.755 101.056,381.403 100.942,380.973 100.878 C 380.543 100.813,380.191 100.687,380.191 100.598 C 380.191 100.508,380.015 100.432,379.800 100.429 C 379.585 100.425,379.096 100.272,378.714 100.087 C 378.332 99.902,377.843 99.748,377.628 99.745 C 377.413 99.742,377.237 99.666,377.237 99.576 C 377.237 99.487,376.885 99.360,376.455 99.296 C 376.025 99.231,375.673 99.109,375.673 99.025 C 375.673 98.940,375.536 98.870,375.369 98.869 C 375.202 98.869,374.847 98.755,374.580 98.615 C 374.313 98.476,373.824 98.312,373.494 98.250 C 373.164 98.188,372.893 98.072,372.893 97.993 C 372.893 97.914,372.541 97.797,372.111 97.732 C 371.681 97.668,371.329 97.563,371.329 97.499 C 371.329 97.436,370.723 97.196,369.983 96.967 C 369.242 96.738,368.558 96.495,368.462 96.427 C 368.367 96.360,368.015 96.248,367.680 96.180 C 367.346 96.112,366.914 95.957,366.721 95.835 C 366.528 95.713,366.039 95.557,365.635 95.489 C 365.231 95.421,364.900 95.302,364.900 95.226 C 364.900 95.150,364.548 95.034,364.118 94.970 C 363.688 94.905,363.336 94.780,363.336 94.692 C 363.336 94.603,363.023 94.481,362.641 94.419 C 362.259 94.358,361.946 94.245,361.946 94.167 C 361.946 94.090,361.594 93.974,361.164 93.909 C 360.734 93.845,360.382 93.730,360.382 93.653 C 360.382 93.577,360.070 93.462,359.687 93.397 C 359.305 93.332,358.992 93.215,358.992 93.136 C 358.992 93.058,358.679 92.940,358.297 92.876 C 357.915 92.811,357.602 92.694,357.602 92.615 C 357.602 92.536,357.274 92.417,356.874 92.349 C 356.140 92.225,355.382 91.746,355.919 91.746 C 356.058 91.746,356.396 91.629,356.670 91.487 C 356.944 91.344,357.300 91.227,357.462 91.226 C 357.623 91.226,357.799 91.154,357.853 91.066 C 357.907 90.979,358.264 90.855,358.646 90.790 C 359.027 90.726,359.340 90.611,359.340 90.534 C 359.340 90.458,359.692 90.343,360.122 90.278 C 360.552 90.214,360.904 90.097,360.904 90.018 C 360.904 89.939,361.255 89.822,361.685 89.757 C 362.116 89.693,362.467 89.567,362.467 89.479 C 362.467 89.390,362.780 89.268,363.162 89.207 C 363.545 89.145,363.858 89.032,363.858 88.955 C 363.858 88.877,364.209 88.761,364.639 88.696 C 365.070 88.632,365.421 88.515,365.421 88.436 C 365.421 88.357,365.773 88.240,366.203 88.175 C 366.633 88.111,366.985 87.995,366.985 87.919 C 366.985 87.843,367.298 87.728,367.679 87.663 C 368.061 87.599,368.412 87.483,368.459 87.407 C 368.507 87.330,368.820 87.216,369.155 87.153 C 369.491 87.090,369.765 86.973,369.765 86.893 C 369.765 86.812,370.117 86.694,370.547 86.629 C 370.977 86.565,371.329 86.448,371.329 86.369 C 371.329 86.290,371.681 86.173,372.111 86.108 C 372.541 86.044,372.893 85.926,372.893 85.847 C 372.893 85.769,373.245 85.651,373.675 85.587 C 374.105 85.522,374.457 85.405,374.457 85.326 C 374.457 85.247,374.731 85.131,375.065 85.068 C 375.400 85.005,375.673 84.888,375.673 84.808 C 375.673 84.727,376.025 84.609,376.455 84.544 C 376.885 84.480,377.237 84.354,377.237 84.264 C 377.237 84.174,377.343 84.101,377.472 84.101 C 379.030 84.101,379.057 81.262,377.502 80.872 C 377.261 80.811,377.063 80.698,377.063 80.619 C 377.063 80.541,376.633 80.423,376.108 80.357 C 375.582 80.292,375.152 80.169,375.152 80.084 C 375.152 79.885,370.511 79.882,370.388 80.081 C 370.336 80.164,369.902 80.284,369.422 80.348 C 368.942 80.412,368.549 80.530,368.549 80.612 C 368.549 80.693,368.197 80.813,367.767 80.877 C 367.337 80.942,366.985 81.059,366.985 81.138 C 366.985 81.217,366.633 81.334,366.203 81.398 C 365.773 81.463,365.421 81.582,365.421 81.663 C 365.421 81.745,365.109 81.864,364.726 81.929 C 364.344 81.993,364.031 82.111,364.031 82.189 C 364.031 82.268,363.719 82.385,363.337 82.450 C 362.955 82.514,362.603 82.632,362.554 82.711 C 362.506 82.790,362.154 82.907,361.772 82.971 C 361.391 83.036,361.039 83.153,360.990 83.232 C 360.942 83.311,360.589 83.428,360.208 83.493 C 359.826 83.557,359.513 83.671,359.513 83.746 C 359.513 83.821,359.201 83.933,358.818 83.994 C 358.436 84.055,358.123 84.177,358.123 84.266 C 358.123 84.355,357.772 84.480,357.341 84.544 C 356.911 84.609,356.560 84.726,356.560 84.805 C 356.560 84.884,356.208 85.001,355.778 85.066 C 355.348 85.130,354.996 85.245,354.996 85.322 C 354.996 85.398,354.683 85.513,354.302 85.578 C 353.920 85.642,353.569 85.757,353.522 85.834 C 353.474 85.910,353.161 86.024,352.826 86.087 C 352.490 86.150,352.215 86.276,352.215 86.368 C 352.215 86.459,352.141 86.533,352.049 86.533 C 351.946 86.533,351.864 83.179,351.832 77.715 C 351.777 68.246,351.764 68.115,350.874 68.115 C 350.752 68.115,350.652 68.040,350.652 67.949 C 350.652 67.858,350.358 67.729,350.000 67.663 C 349.642 67.597,349.294 67.459,349.228 67.357 C 349.105 67.166,343.991 67.031,342.876 67.188 M157.298 68.230 C 156.892 68.273,156.560 68.372,156.560 68.450 C 156.560 68.528,156.247 68.642,155.864 68.703 C 155.482 68.764,155.169 68.891,155.169 68.986 C 155.169 69.080,155.064 69.157,154.934 69.157 C 154.805 69.157,154.492 69.349,154.239 69.583 L 153.779 70.009 153.779 76.003 L 153.779 81.996 151.651 82.073 C 149.378 82.156,146.800 82.481,146.656 82.703 C 146.608 82.777,146.379 82.897,146.147 82.969 C 145.226 83.257,144.570 83.992,144.570 84.735 C 144.570 85.474,145.418 86.436,146.248 86.640 C 146.520 86.706,146.789 86.832,146.847 86.920 C 146.904 87.008,147.708 87.125,148.634 87.180 C 149.559 87.235,150.357 87.347,150.407 87.428 C 150.457 87.509,151.237 87.576,152.139 87.576 L 153.779 87.576 153.779 95.875 L 153.779 104.174 154.221 104.650 C 154.464 104.912,154.776 105.126,154.916 105.126 C 155.055 105.126,155.169 105.199,155.169 105.289 C 155.169 105.379,155.541 105.507,155.995 105.574 C 156.449 105.641,156.876 105.782,156.944 105.889 C 157.119 106.161,185.016 106.164,185.193 105.891 C 185.261 105.787,185.629 105.652,186.011 105.591 C 186.392 105.531,186.731 105.402,186.764 105.304 C 186.796 105.206,186.906 105.126,187.008 105.126 C 187.379 105.126,188.358 103.929,188.358 103.475 C 188.358 103.012,187.376 101.825,186.994 101.825 C 186.884 101.825,186.794 101.756,186.794 101.673 C 186.794 101.590,186.464 101.469,186.061 101.404 C 185.658 101.340,185.269 101.193,185.198 101.078 C 185.101 100.920,182.678 100.854,175.332 100.810 L 165.595 100.752 165.595 94.164 L 165.595 87.576 170.016 87.576 C 172.447 87.576,174.478 87.509,174.529 87.427 C 174.580 87.344,175.336 87.236,176.210 87.187 C 177.084 87.137,177.849 87.020,177.909 86.927 C 177.970 86.834,178.312 86.703,178.671 86.638 C 179.029 86.572,179.322 86.443,179.322 86.352 C 179.322 86.261,179.422 86.186,179.544 86.186 C 181.002 86.186,180.403 83.330,178.867 82.953 C 178.592 82.886,178.324 82.766,178.271 82.687 C 178.060 82.367,175.157 82.138,170.504 82.073 L 165.595 82.005 165.595 76.057 L 165.595 70.109 165.154 69.633 C 164.911 69.371,164.598 69.157,164.459 69.157 C 164.319 69.157,164.205 69.086,164.205 68.999 C 164.205 68.912,163.873 68.785,163.467 68.717 C 163.060 68.649,162.683 68.523,162.628 68.437 C 162.518 68.263,158.461 68.105,157.298 68.230 M201.043 82.167 C 201.043 82.250,200.573 82.371,200.000 82.436 C 199.427 82.501,198.957 82.628,198.957 82.719 C 198.957 82.810,198.807 82.884,198.622 82.884 C 198.438 82.884,198.170 83.002,198.027 83.145 C 197.883 83.288,197.680 83.406,197.575 83.406 C 197.471 83.406,197.338 83.640,197.281 83.927 C 197.223 84.214,197.108 84.448,197.024 84.448 C 196.764 84.448,196.832 103.445,197.094 103.951 C 197.402 104.543,197.769 104.883,198.270 105.040 C 198.505 105.113,198.742 105.243,198.798 105.329 C 198.853 105.415,199.205 105.534,199.580 105.593 C 199.954 105.653,200.316 105.787,200.385 105.891 C 200.474 106.028,207.640 106.082,225.717 106.082 C 243.794 106.082,250.960 106.028,251.049 105.891 C 251.117 105.787,251.479 105.653,251.854 105.593 C 252.228 105.534,252.580 105.415,252.636 105.329 C 252.691 105.243,252.920 105.115,253.145 105.045 C 254.362 104.665,254.295 105.249,254.348 94.480 C 254.397 84.554,254.359 83.832,253.772 83.507 C 253.585 83.403,253.393 83.271,253.345 83.212 C 253.297 83.153,253.063 83.045,252.824 82.971 C 252.585 82.898,252.343 82.766,252.286 82.678 C 252.229 82.589,251.741 82.472,251.200 82.416 C 250.659 82.360,250.217 82.247,250.217 82.165 C 250.217 82.082,239.239 82.016,225.630 82.016 C 211.785 82.016,201.043 82.082,201.043 82.167 M268.983 82.165 C 268.983 82.247,268.541 82.360,268.001 82.416 C 267.460 82.472,266.971 82.589,266.915 82.678 C 266.858 82.766,266.616 82.898,266.377 82.971 C 266.138 83.044,265.728 83.342,265.465 83.634 L 264.987 84.163 264.987 94.123 C 264.987 99.771,265.053 104.083,265.140 104.083 C 265.225 104.083,265.333 104.234,265.381 104.417 C 265.475 104.776,266.561 105.374,267.471 105.568 C 267.777 105.634,268.122 105.763,268.237 105.856 C 268.505 106.072,273.518 106.073,273.657 105.857 C 273.715 105.768,274.133 105.641,274.587 105.574 C 275.041 105.507,275.413 105.379,275.413 105.289 C 275.413 105.199,275.519 105.126,275.648 105.126 C 275.777 105.126,276.110 104.916,276.386 104.660 L 276.890 104.193 276.938 95.711 L 276.986 87.228 284.019 87.228 L 291.051 87.228 291.051 91.659 C 291.051 96.586,291.096 96.743,292.628 97.222 C 292.860 97.294,293.096 97.426,293.153 97.514 C 293.209 97.602,293.698 97.719,294.239 97.775 C 294.779 97.831,295.222 97.944,295.222 98.026 C 295.222 98.222,298.822 98.221,298.943 98.025 C 298.995 97.942,299.507 97.820,300.083 97.755 C 300.659 97.690,301.129 97.571,301.129 97.491 C 301.129 97.410,301.327 97.295,301.568 97.234 C 302.982 96.879,303.215 96.038,303.215 91.285 L 303.215 87.228 310.165 87.228 L 317.116 87.228 317.116 95.578 L 317.116 103.927 317.698 104.526 C 318.018 104.856,318.370 105.126,318.480 105.126 C 318.590 105.126,318.679 105.194,318.679 105.278 C 318.679 105.361,319.008 105.482,319.409 105.546 C 319.811 105.610,320.238 105.745,320.359 105.845 C 320.641 106.079,325.565 106.089,325.853 105.857 C 325.969 105.763,326.397 105.632,326.803 105.565 C 327.209 105.498,327.541 105.372,327.541 105.284 C 327.541 105.197,327.631 105.126,327.741 105.126 C 327.851 105.126,328.203 104.856,328.523 104.526 L 329.105 103.927 329.105 94.014 C 329.105 87.521,329.045 84.101,328.931 84.101 C 328.836 84.101,328.758 84.001,328.758 83.879 C 328.758 83.593,328.215 83.130,327.690 82.966 C 327.465 82.895,327.234 82.766,327.177 82.678 C 327.121 82.589,326.630 82.472,326.086 82.415 C 325.543 82.359,325.057 82.246,325.006 82.165 C 324.886 81.969,268.983 81.970,268.983 82.165 M242.572 94.005 L 242.572 100.782 225.717 100.782 L 208.862 100.782 208.862 94.005 L 208.862 87.228 225.717 87.228 L 242.572 87.228 242.572 94.005 M240.487 120.070 C 240.487 120.165,240.381 120.243,240.251 120.243 C 239.547 120.243,239.065 121.096,238.968 122.510 L 238.873 123.892 238.203 123.892 L 237.533 123.892 237.533 124.674 L 237.533 125.456 238.228 125.456 L 238.923 125.456 238.923 129.540 L 238.923 133.623 239.965 133.623 L 241.008 133.623 241.008 129.540 L 241.008 125.456 241.877 125.456 L 242.745 125.456 242.745 124.674 L 242.745 123.892 241.855 123.892 L 240.964 123.892 241.047 123.020 C 241.153 121.920,241.189 121.889,242.326 121.917 C 243.128 121.936,243.267 121.893,243.267 121.623 C 243.267 121.449,243.345 121.258,243.440 121.199 C 243.536 121.140,243.614 120.823,243.614 120.494 L 243.614 119.896 242.050 119.896 C 241.124 119.896,240.487 119.967,240.487 120.070 M280.629 120.209 C 279.664 120.870,279.552 121.091,279.454 122.520 L 279.360 123.892 278.689 123.892 L 278.019 123.892 278.019 124.674 L 278.019 125.456 278.714 125.456 L 279.409 125.456 279.409 129.540 L 279.409 133.623 280.365 133.623 L 281.321 133.623 281.321 129.540 L 281.321 125.456 282.276 125.456 L 283.232 125.456 283.232 124.674 L 283.232 123.892 282.276 123.892 C 281.345 123.892,281.321 123.880,281.321 123.406 C 281.321 122.225,281.904 121.730,283.076 121.917 C 283.753 122.025,283.927 121.715,283.927 120.395 L 283.927 119.896 282.493 119.905 C 281.442 119.912,280.945 119.993,280.629 120.209 M146.829 126.922 L 146.829 133.623 147.871 133.623 L 148.914 133.623 148.914 131.103 L 148.914 128.584 151.086 128.584 C 152.281 128.584,153.258 128.516,153.258 128.432 C 153.258 128.349,153.665 128.241,154.163 128.194 C 154.661 128.146,155.097 128.019,155.133 127.911 C 155.169 127.803,155.282 127.715,155.384 127.715 C 155.812 127.715,156.770 126.469,156.861 125.794 C 156.911 125.417,157.021 125.109,157.104 125.109 C 157.300 125.109,157.301 123.420,157.104 123.299 C 157.022 123.247,156.909 122.932,156.855 122.596 C 156.758 121.997,155.768 120.765,155.384 120.765 C 155.282 120.765,155.166 120.667,155.126 120.547 C 155.072 120.384,154.037 120.317,150.941 120.275 L 146.829 120.220 146.829 126.922 M174.805 126.942 L 174.805 133.641 176.311 133.590 C 177.394 133.553,177.838 133.600,177.889 133.755 C 177.973 134.007,180.539 134.066,180.539 133.816 C 180.539 133.730,180.751 133.607,181.011 133.542 C 181.714 133.366,182.884 132.030,183.210 131.032 C 183.700 129.535,183.447 126.008,182.811 125.456 C 182.756 125.408,182.627 125.218,182.525 125.033 C 182.423 124.849,182.189 124.614,182.004 124.512 C 181.819 124.410,181.606 124.229,181.529 124.109 C 181.453 123.990,181.199 123.892,180.964 123.892 C 180.730 123.892,180.539 123.814,180.539 123.719 C 180.539 123.436,178.396 123.513,177.785 123.818 C 177.484 123.968,177.237 124.164,177.237 124.253 C 177.237 124.341,177.159 124.414,177.063 124.414 C 176.957 124.414,176.890 123.603,176.890 122.328 L 176.890 120.243 175.847 120.243 L 174.805 120.243 174.805 126.942 M184.883 126.933 L 184.883 133.623 185.925 133.623 L 186.968 133.623 186.968 126.933 L 186.968 120.243 185.925 120.243 L 184.883 120.243 184.883 126.933 M253.692 126.933 L 253.692 133.623 254.725 133.623 L 255.757 133.623 255.811 130.177 L 255.864 126.732 256.459 126.137 C 256.982 125.615,257.162 125.543,257.949 125.543 C 259.490 125.543,259.504 125.581,259.566 129.918 L 259.620 133.623 260.664 133.623 L 261.708 133.623 261.653 129.402 L 261.599 125.180 260.973 124.536 C 260.629 124.182,260.179 123.892,259.974 123.892 C 259.768 123.892,259.600 123.814,259.600 123.719 C 259.600 123.618,259.050 123.545,258.297 123.545 C 257.544 123.545,256.994 123.618,256.994 123.719 C 256.994 123.814,256.843 123.892,256.659 123.892 C 256.474 123.892,256.201 124.015,256.051 124.165 C 255.802 124.414,255.778 124.248,255.778 122.341 L 255.778 120.243 254.735 120.243 L 253.692 120.243 253.692 126.933 M351.694 122.355 C 351.694 124.390,351.683 124.457,351.376 124.180 C 351.202 124.022,350.967 123.892,350.855 123.892 C 350.743 123.892,350.652 123.814,350.652 123.719 C 350.652 123.618,350.101 123.545,349.348 123.545 C 348.632 123.545,348.045 123.614,348.045 123.700 C 348.045 123.785,347.840 123.906,347.589 123.969 C 346.729 124.185,345.442 125.727,345.440 126.542 C 345.439 126.805,345.361 127.020,345.265 127.020 C 345.050 127.020,345.028 130.262,345.242 130.394 C 345.325 130.446,345.443 130.802,345.505 131.186 C 345.566 131.571,345.694 131.885,345.788 131.885 C 345.883 131.885,345.960 131.975,345.960 132.085 C 345.960 132.403,347.100 133.423,347.595 133.548 C 347.842 133.610,348.045 133.730,348.045 133.816 C 348.045 133.901,348.632 133.970,349.348 133.970 C 350.101 133.970,350.652 133.897,350.652 133.797 C 350.652 133.701,350.802 133.623,350.987 133.623 C 351.171 133.623,351.445 133.500,351.595 133.350 C 351.843 133.102,351.868 133.102,351.868 133.350 C 351.868 133.565,352.071 133.623,352.824 133.623 L 353.779 133.623 353.779 126.933 L 353.779 120.243 352.737 120.243 L 351.694 120.243 351.694 122.355 M375.500 123.534 C 375.500 125.541,375.567 126.868,375.673 126.933 C 375.770 126.993,375.847 127.804,375.847 128.768 L 375.847 130.495 376.542 130.495 C 377.111 130.495,377.237 130.435,377.237 130.162 C 377.237 129.979,377.312 129.803,377.403 129.771 C 377.498 129.738,377.620 127.704,377.690 124.978 L 377.812 120.243 376.656 120.243 L 375.500 120.243 375.500 123.534 M250.043 120.730 C 249.805 120.892,249.583 121.084,249.551 121.156 C 249.519 121.227,249.382 121.286,249.247 121.286 C 249.057 121.286,249.001 121.581,249.001 122.589 L 249.001 123.892 248.393 123.892 C 247.788 123.892,247.785 123.896,247.785 124.674 C 247.785 125.450,247.790 125.456,248.383 125.456 L 248.982 125.456 249.035 129.161 C 249.083 132.529,249.118 132.897,249.418 133.196 C 250.333 134.111,252.552 134.336,252.753 133.535 C 253.005 132.529,252.698 131.885,251.966 131.885 C 251.087 131.885,251.086 131.880,251.086 128.396 L 251.086 125.456 251.868 125.456 L 252.650 125.456 252.650 124.674 L 252.650 123.892 251.868 123.892 L 251.086 123.892 251.086 122.155 C 251.086 120.243,250.978 120.096,250.043 120.730 M295.743 120.579 C 295.743 120.668,295.578 120.793,295.377 120.857 C 294.546 121.121,294.353 121.472,294.353 122.715 L 294.353 123.892 293.831 123.892 C 293.329 123.892,293.310 123.921,293.310 124.674 C 293.310 125.427,293.329 125.456,293.831 125.456 L 294.353 125.456 294.353 128.758 C 294.353 130.843,294.417 132.059,294.526 132.059 C 294.622 132.059,294.700 132.288,294.700 132.568 C 294.700 133.111,295.086 133.623,295.495 133.623 C 295.631 133.623,295.743 133.705,295.743 133.805 C 295.743 133.918,296.183 133.967,296.916 133.935 L 298.089 133.884 298.141 132.884 L 298.193 131.885 297.423 131.885 C 296.442 131.885,296.443 131.890,296.440 128.280 L 296.438 125.456 297.307 125.456 L 298.175 125.456 298.175 124.674 L 298.175 123.892 297.307 123.892 L 296.438 123.892 296.438 122.155 C 296.438 120.533,296.415 120.417,296.090 120.417 C 295.899 120.417,295.743 120.490,295.743 120.579 M332.204 120.547 C 332.172 120.619,331.853 120.827,331.494 121.009 L 330.843 121.341 330.843 122.616 L 330.843 123.892 330.235 123.892 C 329.630 123.892,329.626 123.896,329.626 124.674 C 329.626 125.452,329.630 125.456,330.235 125.456 L 330.843 125.456 330.843 129.129 L 330.843 132.801 331.286 133.212 C 331.530 133.438,331.843 133.623,331.981 133.623 C 332.120 133.623,332.233 133.701,332.233 133.797 C 332.233 134.075,334.303 134.010,334.591 133.722 C 334.876 133.437,334.924 132.928,334.666 132.928 C 334.570 132.928,334.492 132.693,334.492 132.407 C 334.492 131.946,334.432 131.885,333.985 131.885 C 332.903 131.885,332.928 131.965,332.928 128.565 L 332.928 125.456 333.710 125.456 L 334.492 125.456 334.492 124.674 L 334.492 123.892 333.710 123.892 L 332.928 123.892 332.928 122.155 C 332.928 120.558,332.901 120.417,332.595 120.417 C 332.412 120.417,332.236 120.476,332.204 120.547 M154.232 122.795 C 155.304 123.789,154.662 126.151,153.320 126.151 C 153.095 126.151,152.911 126.229,152.911 126.325 C 152.911 126.431,152.129 126.499,150.912 126.499 L 148.914 126.499 148.914 124.414 L 148.914 122.328 151.321 122.328 C 153.692 122.328,153.736 122.335,154.232 122.795 M161.423 123.675 C 161.423 123.747,161.227 123.896,160.989 124.006 C 160.751 124.117,160.556 124.136,160.556 124.050 C 160.556 123.963,160.087 123.892,159.513 123.892 L 158.471 123.892 158.471 128.758 L 158.471 133.623 159.513 133.623 L 160.556 133.623 160.556 130.930 C 160.556 129.250,160.621 128.236,160.730 128.236 C 160.825 128.236,160.905 127.943,160.906 127.585 C 160.910 126.577,161.080 126.157,161.532 126.044 C 161.760 125.986,161.946 125.870,161.946 125.785 C 161.946 125.579,162.596 125.585,162.670 125.791 C 162.805 126.165,163.684 126.205,163.684 125.837 C 163.684 125.643,163.764 125.458,163.862 125.426 C 164.262 125.292,164.279 124.053,163.882 123.949 C 163.677 123.895,163.510 123.783,163.510 123.698 C 163.510 123.614,163.041 123.545,162.467 123.545 C 161.894 123.545,161.424 123.603,161.423 123.675 M167.333 123.719 C 167.333 123.814,167.182 123.892,166.998 123.892 C 166.813 123.892,166.545 124.010,166.402 124.153 C 166.259 124.296,166.077 124.415,165.999 124.417 C 165.790 124.421,165.074 125.212,165.074 125.437 C 165.074 125.543,164.997 125.630,164.902 125.630 C 164.808 125.630,164.680 125.943,164.619 126.325 C 164.558 126.707,164.440 127.020,164.357 127.020 C 164.273 127.020,164.205 127.802,164.205 128.758 C 164.205 129.713,164.273 130.495,164.357 130.495 C 164.440 130.495,164.558 130.808,164.619 131.190 C 164.680 131.573,164.808 131.885,164.902 131.885 C 164.997 131.885,165.074 131.975,165.074 132.085 C 165.074 132.439,166.263 133.453,166.806 133.561 C 167.096 133.619,167.333 133.735,167.333 133.818 C 167.333 133.902,168.036 133.970,168.897 133.970 C 169.757 133.970,170.460 133.898,170.460 133.811 C 170.460 133.723,170.695 133.599,170.982 133.536 C 171.268 133.473,171.503 133.350,171.503 133.262 C 171.503 133.174,171.603 133.102,171.725 133.102 C 171.977 133.102,172.546 132.494,172.546 132.225 C 172.546 132.128,172.661 132.004,172.802 131.950 C 172.942 131.896,173.103 131.566,173.159 131.217 C 173.214 130.868,173.334 130.446,173.424 130.280 C 173.635 129.894,173.640 127.194,173.430 127.194 C 173.343 127.194,173.221 126.895,173.159 126.530 C 173.097 126.164,172.856 125.659,172.622 125.408 C 172.389 125.156,172.198 124.868,172.198 124.769 C 172.198 124.669,172.078 124.587,171.932 124.587 C 171.786 124.587,171.623 124.475,171.570 124.337 C 171.517 124.200,171.247 124.037,170.969 123.976 C 170.692 123.915,170.420 123.793,170.365 123.705 C 170.229 123.485,167.333 123.498,167.333 123.719 M191.659 123.697 C 191.659 123.780,191.423 123.896,191.133 123.954 C 190.590 124.063,189.401 125.076,189.401 125.430 C 189.401 125.540,189.324 125.630,189.230 125.630 C 189.136 125.630,189.007 125.845,188.943 126.108 C 188.878 126.371,188.754 126.633,188.666 126.691 C 188.451 126.832,188.443 130.679,188.657 130.819 C 188.750 130.880,188.881 131.155,188.948 131.430 C 189.114 132.107,190.464 133.427,191.126 133.560 C 191.420 133.618,191.659 133.735,191.659 133.818 C 191.659 133.902,192.363 133.970,193.223 133.970 C 194.150 133.970,194.787 133.900,194.787 133.797 C 194.787 133.701,194.985 133.623,195.227 133.623 C 195.469 133.623,195.709 133.513,195.761 133.378 C 195.813 133.243,196.043 133.086,196.274 133.028 C 196.528 132.964,196.736 132.753,196.802 132.491 C 196.861 132.253,196.971 132.059,197.046 132.059 C 197.121 132.059,197.236 131.845,197.302 131.583 C 197.367 131.321,197.496 131.061,197.587 131.004 C 198.104 130.685,197.492 130.321,196.438 130.321 C 195.415 130.321,195.339 130.349,195.236 130.760 C 194.800 132.497,191.434 132.389,191.030 130.626 C 190.970 130.363,190.853 130.148,190.769 130.148 C 190.685 130.148,190.617 129.991,190.617 129.800 C 190.617 129.464,190.733 129.453,194.179 129.453 L 197.741 129.453 197.741 128.660 C 197.741 127.882,197.353 126.318,197.033 125.804 C 196.943 125.660,196.817 125.429,196.752 125.290 C 196.576 124.913,196.120 124.414,195.952 124.414 C 195.871 124.414,195.688 124.296,195.544 124.153 C 195.401 124.010,195.133 123.892,194.948 123.892 C 194.764 123.892,194.613 123.814,194.613 123.719 C 194.613 123.616,194.005 123.545,193.136 123.545 C 192.324 123.545,191.659 123.613,191.659 123.697 M201.781 123.978 C 201.220 124.287,201.043 124.326,201.043 124.138 C 201.043 123.953,200.784 123.892,200.000 123.892 L 198.957 123.892 198.957 128.758 L 198.957 133.623 199.975 133.623 L 200.992 133.623 201.085 130.198 C 201.147 127.916,201.242 126.751,201.371 126.708 C 201.477 126.672,201.564 126.550,201.564 126.436 C 201.564 125.887,202.858 125.338,203.672 125.542 C 204.555 125.764,204.692 126.382,204.692 130.162 L 204.692 133.623 205.721 133.623 L 206.751 133.623 206.807 130.177 L 206.864 126.732 207.432 126.164 C 208.450 125.147,210.078 125.347,210.078 126.488 C 210.078 126.674,210.156 126.874,210.252 126.933 C 210.358 126.999,210.426 128.325,210.426 130.332 L 210.426 133.623 211.468 133.623 L 212.511 133.623 212.511 129.984 C 212.511 127.983,212.443 126.304,212.361 126.253 C 212.278 126.201,212.169 125.849,212.118 125.468 C 212.023 124.765,211.313 123.892,210.835 123.892 C 210.705 123.892,210.599 123.814,210.599 123.719 C 210.599 123.618,210.049 123.545,209.296 123.545 C 208.543 123.545,207.993 123.618,207.993 123.719 C 207.993 123.814,207.843 123.892,207.659 123.892 C 207.475 123.892,207.103 124.114,206.831 124.386 L 206.338 124.879 205.851 124.386 C 205.584 124.114,205.252 123.892,205.115 123.892 C 204.978 123.892,204.865 123.814,204.865 123.719 C 204.865 123.354,202.562 123.547,201.781 123.978 M216.160 123.719 C 216.160 123.814,215.962 123.892,215.720 123.892 C 215.478 123.892,215.235 124.010,215.180 124.153 C 215.125 124.296,214.971 124.414,214.838 124.414 C 214.705 124.414,214.596 124.522,214.596 124.656 C 214.596 124.789,214.479 124.943,214.335 124.998 C 214.192 125.053,214.075 125.296,214.075 125.538 C 214.075 125.779,213.997 125.977,213.901 125.977 C 213.805 125.977,213.727 126.168,213.727 126.402 C 213.727 126.635,213.805 126.874,213.901 126.933 C 213.997 126.992,214.075 127.233,214.075 127.468 C 214.075 128.095,215.162 129.080,216.001 129.215 C 216.375 129.274,216.681 129.383,216.681 129.457 C 216.681 129.531,217.192 129.680,217.816 129.788 C 219.069 130.007,219.635 130.371,219.635 130.961 C 219.635 132.527,216.246 132.457,215.828 130.883 C 215.685 130.344,213.999 130.055,213.712 130.520 C 213.572 130.746,213.700 131.731,213.888 131.885 C 213.947 131.933,214.093 132.195,214.213 132.467 C 214.333 132.740,214.580 133.002,214.762 133.049 C 214.944 133.097,215.135 133.245,215.187 133.379 C 215.238 133.513,215.478 133.623,215.720 133.623 C 215.962 133.623,216.160 133.701,216.160 133.797 C 216.160 133.900,216.826 133.970,217.811 133.970 C 218.795 133.970,219.461 133.900,219.461 133.797 C 219.461 133.701,219.612 133.623,219.796 133.623 C 219.981 133.623,220.249 133.506,220.392 133.362 C 220.536 133.219,220.730 133.102,220.825 133.102 C 220.919 133.102,221.168 132.825,221.377 132.486 C 222.096 131.322,221.639 128.584,220.726 128.584 C 220.604 128.584,220.504 128.507,220.504 128.412 C 220.504 128.318,220.191 128.190,219.809 128.129 C 219.427 128.068,219.114 127.953,219.114 127.873 C 219.114 127.793,218.723 127.675,218.245 127.612 C 217.767 127.548,217.376 127.438,217.376 127.367 C 217.376 127.296,217.073 127.190,216.702 127.130 C 215.843 126.993,215.636 126.449,216.209 125.835 C 217.019 124.969,219.461 125.597,219.461 126.672 C 219.461 127.050,220.378 127.191,220.591 126.846 C 220.650 126.751,220.889 126.672,221.122 126.672 C 221.478 126.672,221.546 126.588,221.546 126.151 C 221.546 125.864,221.477 125.630,221.392 125.630 C 221.306 125.630,221.187 125.432,221.126 125.191 C 220.968 124.559,220.395 124.055,219.709 123.943 C 219.382 123.890,219.114 123.779,219.114 123.696 C 219.114 123.613,218.449 123.545,217.637 123.545 C 216.768 123.545,216.160 123.616,216.160 123.719 M230.930 123.705 C 230.930 123.793,230.695 123.916,230.408 123.979 C 230.122 124.042,229.887 124.164,229.887 124.250 C 229.887 124.336,229.691 124.456,229.451 124.516 C 229.192 124.581,228.974 124.789,228.914 125.028 C 228.859 125.250,228.703 125.473,228.568 125.525 C 228.433 125.577,228.323 125.810,228.323 126.044 C 228.323 126.278,228.225 126.502,228.106 126.542 C 227.948 126.595,227.889 127.198,227.889 128.758 C 227.889 130.317,227.948 130.920,228.106 130.973 C 228.225 131.013,228.323 131.237,228.323 131.471 C 228.323 131.705,228.433 131.939,228.568 131.990 C 228.703 132.042,228.860 132.273,228.918 132.503 C 228.982 132.758,229.194 132.965,229.455 133.031 C 229.693 133.091,229.887 133.203,229.887 133.280 C 229.887 133.358,230.122 133.473,230.408 133.536 C 230.695 133.599,230.930 133.723,230.930 133.811 C 230.930 133.898,231.594 133.970,232.407 133.970 C 233.275 133.970,233.884 133.899,233.884 133.797 C 233.884 133.701,234.082 133.623,234.323 133.623 C 234.565 133.623,234.808 133.506,234.863 133.362 C 234.918 133.219,235.061 133.102,235.180 133.102 C 235.509 133.102,236.188 132.387,236.577 131.631 C 236.981 130.846,237.106 126.428,236.731 126.188 C 236.624 126.120,236.478 125.876,236.406 125.646 C 236.258 125.170,235.505 124.414,235.180 124.414 C 235.061 124.414,234.918 124.296,234.863 124.153 C 234.808 124.010,234.565 123.892,234.323 123.892 C 234.082 123.892,233.884 123.814,233.884 123.719 C 233.884 123.616,233.275 123.545,232.407 123.545 C 231.594 123.545,230.930 123.617,230.930 123.705 M266.476 123.699 C 266.423 123.784,266.170 123.907,265.913 123.971 C 265.386 124.103,264.118 125.326,264.118 125.702 C 264.118 125.838,264.035 125.976,263.933 126.010 C 263.831 126.044,263.704 126.402,263.650 126.807 C 263.595 127.211,263.483 127.541,263.400 127.541 C 263.317 127.541,263.249 128.167,263.249 128.931 C 263.249 129.696,263.323 130.321,263.412 130.321 C 263.502 130.321,263.628 130.668,263.691 131.092 C 263.755 131.515,263.916 131.904,264.049 131.955 C 264.183 132.006,264.292 132.128,264.292 132.225 C 264.292 132.494,264.861 133.102,265.112 133.102 C 265.235 133.102,265.334 133.174,265.334 133.262 C 265.334 133.350,265.569 133.473,265.856 133.536 C 266.142 133.599,266.377 133.723,266.377 133.811 C 266.377 133.898,267.120 133.970,268.028 133.970 C 268.936 133.970,269.679 133.901,269.679 133.816 C 269.679 133.730,269.884 133.609,270.136 133.546 C 270.972 133.336,272.144 131.973,272.243 131.095 L 272.330 130.321 271.277 130.321 C 270.349 130.321,270.209 130.366,270.104 130.698 C 269.532 132.498,265.856 132.451,265.856 130.644 C 265.856 130.466,265.778 130.321,265.682 130.321 C 265.586 130.321,265.508 130.126,265.508 129.887 L 265.508 129.453 268.796 129.453 C 270.604 129.453,272.206 129.405,272.358 129.347 C 272.650 129.235,272.744 128.326,272.481 128.163 C 272.397 128.111,272.291 127.622,272.246 127.075 C 272.201 126.529,272.074 126.052,271.964 126.015 C 271.854 125.978,271.764 125.847,271.764 125.723 C 271.764 125.372,270.433 124.088,269.942 123.964 C 269.700 123.904,269.459 123.784,269.406 123.699 C 269.353 123.614,268.694 123.545,267.941 123.545 C 267.188 123.545,266.528 123.614,266.476 123.699 M311.816 123.973 C 311.415 124.463,311.208 124.524,311.208 124.153 C 311.208 123.956,310.995 123.892,310.339 123.892 L 309.470 123.892 309.470 128.766 L 309.470 133.640 310.469 133.588 L 311.468 133.536 311.572 130.061 C 311.628 128.149,311.687 126.577,311.702 126.568 C 311.717 126.558,311.921 126.343,312.155 126.090 C 312.560 125.653,313.293 125.455,313.293 125.783 C 313.293 126.240,314.213 126.095,314.396 125.610 C 314.500 125.334,314.646 125.109,314.721 125.109 C 315.109 125.109,314.837 124.068,314.422 123.964 C 314.183 123.904,313.988 123.785,313.988 123.700 C 313.988 123.313,312.169 123.542,311.816 123.973 M317.984 123.719 C 317.984 123.814,317.834 123.892,317.649 123.892 C 317.465 123.892,317.207 123.999,317.076 124.130 C 316.946 124.261,316.667 124.422,316.456 124.489 C 316.246 124.556,316.026 124.801,315.968 125.033 C 315.909 125.266,315.795 125.456,315.715 125.456 C 315.069 125.456,314.529 130.938,315.137 131.327 C 315.244 131.395,315.387 131.631,315.456 131.851 C 315.659 132.502,316.747 133.468,317.396 133.573 C 317.720 133.625,317.984 133.736,317.984 133.819 C 317.984 133.902,318.727 133.970,319.635 133.970 C 320.543 133.970,321.286 133.901,321.286 133.816 C 321.286 133.730,321.489 133.610,321.736 133.548 C 322.219 133.426,323.371 132.406,323.371 132.099 C 323.371 131.998,323.454 131.887,323.556 131.853 C 323.658 131.819,323.785 131.460,323.839 131.056 L 323.938 130.321 322.884 130.321 C 322.017 130.321,321.813 130.378,321.730 130.638 C 321.298 131.999,318.880 132.516,317.932 131.451 C 317.190 130.617,317.180 130.600,317.063 130.013 L 316.950 129.453 320.445 129.453 L 323.940 129.453 323.850 127.868 C 323.800 126.997,323.683 126.235,323.589 126.174 C 323.495 126.114,323.362 125.884,323.293 125.665 C 323.090 125.014,322.002 124.048,321.353 123.942 C 321.029 123.890,320.765 123.779,320.765 123.696 C 320.765 123.613,320.139 123.545,319.374 123.545 C 318.564 123.545,317.984 123.617,317.984 123.719 M338.141 123.719 C 338.141 123.814,337.990 123.892,337.806 123.892 C 337.621 123.892,337.353 124.010,337.210 124.153 C 337.067 124.296,336.885 124.415,336.807 124.417 C 336.598 124.421,335.882 125.212,335.882 125.437 C 335.882 125.543,335.805 125.630,335.710 125.630 C 335.616 125.630,335.488 125.943,335.427 126.325 C 335.366 126.707,335.248 127.020,335.165 127.020 C 335.081 127.020,335.013 127.802,335.013 128.758 C 335.013 129.713,335.081 130.495,335.165 130.495 C 335.248 130.495,335.366 130.808,335.427 131.190 C 335.488 131.573,335.616 131.885,335.710 131.885 C 335.805 131.885,335.882 131.975,335.882 132.085 C 335.882 132.439,337.071 133.453,337.614 133.561 C 337.904 133.619,338.141 133.735,338.141 133.818 C 338.141 133.902,338.844 133.970,339.705 133.970 C 340.565 133.970,341.268 133.901,341.268 133.816 C 341.268 133.730,341.483 133.607,341.745 133.541 C 342.006 133.475,342.261 133.369,342.309 133.305 C 342.358 133.241,342.554 133.103,342.745 132.999 C 342.937 132.894,343.195 132.601,343.320 132.347 C 343.444 132.093,343.617 131.885,343.703 131.885 C 343.789 131.885,343.906 131.592,343.963 131.234 C 344.021 130.875,344.142 130.446,344.232 130.280 C 344.443 129.894,344.448 127.194,344.238 127.194 C 344.151 127.194,344.025 126.873,343.959 126.480 C 343.892 126.088,343.710 125.631,343.552 125.464 C 343.395 125.297,343.135 125.012,342.975 124.831 C 342.505 124.299,342.196 124.088,341.716 123.967 C 341.468 123.905,341.222 123.784,341.170 123.699 C 341.036 123.483,338.141 123.501,338.141 123.719 M358.471 123.696 C 358.471 123.780,358.158 123.898,357.776 123.959 C 357.394 124.020,357.081 124.147,357.081 124.242 C 357.081 124.336,356.981 124.414,356.859 124.414 C 356.530 124.414,356.040 125.055,355.923 125.639 C 355.867 125.921,355.753 126.151,355.669 126.151 C 355.123 126.151,355.569 126.983,356.169 127.082 C 357.220 127.256,357.602 127.216,357.602 126.933 C 357.602 126.790,357.680 126.672,357.776 126.672 C 357.871 126.672,357.950 126.561,357.950 126.424 C 357.950 126.288,358.165 126.007,358.427 125.799 C 359.464 124.981,361.777 125.616,361.770 126.716 C 361.765 127.418,361.537 127.544,360.066 127.657 C 359.284 127.717,358.645 127.823,358.645 127.892 C 358.645 127.961,358.283 128.058,357.841 128.108 C 357.399 128.158,356.989 128.275,356.929 128.368 C 356.869 128.461,356.648 128.591,356.438 128.656 C 356.228 128.722,356.002 128.947,355.937 129.157 C 355.871 129.368,355.730 129.595,355.624 129.664 C 354.787 130.199,355.874 133.623,356.881 133.623 C 356.991 133.623,357.081 133.701,357.081 133.797 C 357.081 133.900,357.718 133.970,358.645 133.970 C 359.505 133.970,360.209 133.902,360.209 133.818 C 360.209 133.735,360.448 133.619,360.740 133.560 C 361.032 133.502,361.393 133.332,361.543 133.182 C 361.789 132.936,361.838 132.944,362.064 133.267 C 362.432 133.792,364.379 133.799,364.379 133.275 C 364.379 133.084,364.313 132.928,364.232 132.928 C 364.152 132.928,364.038 131.189,363.978 129.064 C 363.911 126.647,363.803 125.177,363.690 125.140 C 363.591 125.107,363.510 124.986,363.510 124.872 C 363.510 124.556,362.858 124.066,362.284 123.951 C 362.003 123.895,361.772 123.780,361.772 123.697 C 361.772 123.613,361.030 123.545,360.122 123.545 C 359.214 123.545,358.471 123.613,358.471 123.696 M283.927 127.715 C 283.927 129.818,283.995 131.538,284.078 131.538 C 284.161 131.538,284.273 131.806,284.326 132.133 C 284.437 132.819,284.941 133.392,285.575 133.551 C 285.817 133.612,286.058 133.731,286.111 133.816 C 286.236 134.018,288.966 134.018,288.966 133.816 C 288.966 133.730,289.180 133.607,289.442 133.541 C 289.704 133.475,289.977 133.330,290.048 133.218 C 290.133 133.084,290.178 133.119,290.180 133.319 C 290.182 133.574,290.349 133.623,291.225 133.623 L 292.268 133.623 292.268 128.758 L 292.268 123.892 291.246 123.892 L 290.224 123.892 290.154 127.291 C 290.111 129.370,290.014 130.736,289.903 130.809 C 289.804 130.875,289.677 131.054,289.621 131.206 C 289.201 132.348,286.360 132.160,286.360 130.990 C 286.360 130.813,286.281 130.669,286.186 130.669 C 286.076 130.669,286.012 129.424,286.012 127.281 L 286.012 123.892 284.970 123.892 L 283.927 123.892 283.927 127.715 M299.073 127.920 C 299.124 130.879,299.198 131.966,299.354 132.017 C 299.470 132.056,299.566 132.193,299.566 132.321 C 299.566 132.673,300.589 133.623,300.969 133.623 C 301.153 133.623,301.303 133.701,301.303 133.797 C 301.303 133.897,301.853 133.970,302.606 133.970 C 303.323 133.970,303.910 133.901,303.910 133.816 C 303.910 133.730,304.115 133.609,304.365 133.546 C 304.616 133.483,304.948 133.304,305.104 133.147 C 305.366 132.884,305.391 132.891,305.442 133.243 C 305.491 133.580,305.604 133.623,306.441 133.623 L 307.385 133.623 307.385 128.758 L 307.385 123.892 306.342 123.892 L 305.300 123.892 305.300 127.107 C 305.300 129.134,305.236 130.321,305.126 130.321 C 305.030 130.321,304.952 130.466,304.952 130.644 C 304.952 131.638,302.163 132.640,301.867 131.752 C 301.827 131.631,301.683 131.421,301.548 131.286 C 301.353 131.091,301.303 130.312,301.303 127.467 L 301.303 123.892 300.153 123.892 L 299.003 123.892 299.073 127.920 M365.074 124.220 C 365.074 124.400,365.191 124.772,365.333 125.045 C 365.476 125.319,365.593 125.680,365.594 125.847 C 365.595 126.014,365.673 126.151,365.769 126.151 C 365.864 126.151,365.943 126.288,365.944 126.455 C 365.944 126.623,366.059 126.978,366.198 127.245 C 366.337 127.511,366.502 128.000,366.564 128.331 C 366.626 128.661,366.745 128.931,366.829 128.931 C 366.913 128.931,367.031 129.244,367.092 129.626 C 367.153 130.009,367.263 130.321,367.336 130.321 C 367.408 130.321,367.519 130.595,367.582 130.930 C 367.645 131.264,367.762 131.538,367.842 131.538 C 367.923 131.538,368.041 131.890,368.106 132.320 C 368.170 132.750,368.296 133.102,368.386 133.102 C 368.476 133.102,368.549 133.336,368.549 133.623 C 368.549 133.910,368.479 134.144,368.394 134.144 C 368.309 134.144,368.188 134.349,368.125 134.600 C 367.939 135.340,367.614 135.534,366.563 135.534 C 365.606 135.534,365.101 136.251,365.769 136.664 C 365.864 136.723,365.943 136.962,365.943 137.195 C 365.943 138.472,369.341 137.374,369.690 135.984 C 369.752 135.737,369.872 135.534,369.956 135.534 C 370.040 135.534,370.159 135.222,370.220 134.839 C 370.281 134.457,370.396 134.144,370.475 134.144 C 370.554 134.144,370.670 133.871,370.733 133.536 C 370.795 133.202,370.907 132.928,370.981 132.928 C 371.055 132.928,371.169 132.576,371.233 132.146 C 371.298 131.716,371.423 131.364,371.512 131.364 C 371.600 131.364,371.723 131.051,371.784 130.669 C 371.845 130.287,371.963 129.974,372.047 129.974 C 372.130 129.974,372.201 129.837,372.204 129.670 C 372.207 129.503,372.361 129.053,372.546 128.671 C 372.730 128.288,372.884 127.800,372.887 127.585 C 372.890 127.370,372.971 127.194,373.067 127.194 C 373.162 127.194,373.241 127.057,373.242 126.890 C 373.242 126.722,373.357 126.367,373.496 126.100 C 373.635 125.834,373.800 125.344,373.862 125.012 C 373.924 124.681,374.044 124.367,374.129 124.314 C 374.535 124.064,374.190 123.893,373.284 123.895 C 372.058 123.898,371.914 123.984,371.760 124.805 C 371.693 125.163,371.573 125.456,371.494 125.456 C 371.415 125.456,371.298 125.808,371.233 126.238 C 371.169 126.668,371.055 127.020,370.981 127.020 C 370.907 127.020,370.795 127.294,370.733 127.628 C 370.670 127.963,370.553 128.236,370.472 128.236 C 370.392 128.236,370.273 128.588,370.209 129.018 C 370.144 129.448,370.023 129.800,369.940 129.800 C 369.857 129.800,369.764 130.015,369.734 130.278 C 369.688 130.675,369.620 130.580,369.332 129.713 C 369.141 129.140,368.936 128.632,368.875 128.584 C 368.815 128.536,368.710 128.165,368.642 127.758 C 368.574 127.352,368.456 127.020,368.380 127.020 C 368.303 127.020,368.188 126.668,368.124 126.238 C 368.059 125.808,367.937 125.456,367.851 125.456 C 367.766 125.456,367.642 125.163,367.576 124.805 C 367.424 123.978,367.292 123.898,366.073 123.895 C 365.209 123.893,365.074 123.937,365.074 124.220 M170.493 126.160 C 170.760 126.481,171.025 127.021,171.080 127.359 C 171.135 127.698,171.266 128.152,171.371 128.367 C 171.510 128.651,171.509 128.864,171.368 129.149 C 171.262 129.364,171.126 129.862,171.067 130.257 C 170.725 132.517,167.193 132.672,166.700 130.448 C 166.641 130.183,166.525 129.925,166.442 129.873 C 166.239 129.748,166.247 127.762,166.451 127.636 C 166.539 127.582,166.660 127.323,166.720 127.061 C 167.094 125.420,169.412 124.866,170.493 126.160 M180.506 125.945 C 180.710 126.149,180.927 126.514,180.987 126.755 C 181.048 126.996,181.167 127.194,181.253 127.194 C 181.338 127.194,181.407 127.897,181.407 128.758 C 181.407 129.618,181.338 130.321,181.253 130.321 C 181.167 130.321,181.048 130.519,180.987 130.760 C 180.778 131.596,180.203 131.972,179.137 131.972 C 178.139 131.972,178.099 131.948,177.066 130.720 C 176.849 130.462,176.829 127.194,177.045 127.194 C 177.130 127.194,177.249 126.996,177.310 126.755 C 177.623 125.505,179.572 125.011,180.506 125.945 M194.706 126.209 C 195.847 127.383,195.652 127.541,193.065 127.541 L 190.821 127.541 190.936 127.147 C 191.439 125.430,193.461 124.926,194.706 126.209 M233.808 125.905 C 234.699 126.804,234.839 127.212,234.839 128.917 C 234.839 130.071,234.775 130.574,234.622 130.626 C 234.503 130.665,234.404 130.789,234.402 130.901 C 234.393 131.484,233.492 131.972,232.424 131.972 C 229.953 131.972,228.982 128.014,230.951 125.967 C 231.552 125.343,233.215 125.307,233.808 125.905 M269.458 126.078 C 269.738 126.357,270.021 126.801,270.087 127.064 L 270.206 127.541 267.857 127.541 C 266.407 127.541,265.508 127.475,265.508 127.368 C 265.508 127.272,265.586 127.194,265.682 127.194 C 265.778 127.194,265.856 127.049,265.856 126.872 C 265.856 125.535,268.362 124.982,269.458 126.078 M320.898 125.897 C 321.112 126.079,321.286 126.328,321.286 126.450 C 321.286 126.573,321.364 126.672,321.460 126.672 C 321.555 126.672,321.633 126.868,321.633 127.107 L 321.633 127.541 319.374 127.541 C 316.973 127.541,316.902 127.511,317.420 126.713 C 318.268 125.404,319.881 125.026,320.898 125.897 M341.220 125.928 C 341.419 126.128,341.639 126.474,341.709 126.699 C 341.779 126.923,341.915 127.157,342.010 127.218 C 342.256 127.376,342.234 130.202,341.986 130.285 C 341.878 130.321,341.790 130.489,341.790 130.658 C 341.790 132.047,339.135 132.518,338.041 131.323 C 337.693 130.944,337.446 130.492,337.446 130.237 C 337.446 129.997,337.368 129.800,337.272 129.800 C 337.175 129.800,337.098 129.337,337.098 128.758 C 337.098 128.184,337.168 127.715,337.253 127.715 C 337.338 127.715,337.456 127.453,337.516 127.133 C 337.791 125.669,340.182 124.891,341.220 125.928 M350.895 126.063 C 351.144 126.330,351.347 126.649,351.347 126.770 C 351.347 126.892,351.436 127.021,351.544 127.057 C 351.674 127.100,351.742 127.713,351.742 128.844 C 351.742 129.976,351.674 130.589,351.544 130.632 C 351.436 130.668,351.347 130.791,351.347 130.905 C 351.347 131.387,350.283 132.059,349.519 132.059 C 348.623 132.059,347.524 131.157,347.524 130.422 C 347.524 130.187,347.446 129.946,347.350 129.887 C 347.137 129.756,347.116 127.541,347.327 127.541 C 347.410 127.541,347.522 127.273,347.575 126.946 C 347.816 125.462,349.840 124.924,350.895 126.063 M361.772 129.945 C 361.772 131.143,360.888 131.935,359.448 132.026 C 356.826 132.193,356.819 129.986,359.441 129.705 C 360.057 129.639,360.603 129.516,360.656 129.432 C 360.972 128.920,361.772 129.288,361.772 129.945 M375.500 132.493 L 375.500 133.623 376.629 133.623 L 377.758 133.623 377.758 132.493 L 377.758 131.364 376.629 131.364 L 375.500 131.364 375.500 132.493 " stroke="none" fill="#040404" fill-rule="evenodd"></path></g></svg>